<svg xmlns="http://www.w3.org/2000/svg" viewBox="0 0 64 64" width="64" height="64" fill="none">
  <!-- Shield Background -->
  <path d="M32 2L10 12v20c0 15.3 11 28 22 30 11-2 22-14.7 22-30V12L32 2z" fill="#4CAF50" stroke="#388E3C" stroke-width="2"/>

  <!-- Heart Shape -->
  <path d="M32 39c-3.9-3.6-8-7.7-8-12a8 8 0 1 1 16 0c0 4.3-4.1 8.4-8 12z" fill="#fff" stroke="#E53935" stroke-width="2"/>

  <!-- Outline for professional look -->
  <path d="M32 2L10 12v20c0 15.3 11 28 22 30 11-2 22-14.7 22-30V12L32 2z" fill="none" stroke="#2E7D32" stroke-width="2"/>
</svg>
